<svg xmlns="http://www.w3.org/2000/svg" viewBox="0 0 64 64">
  <defs>
    <linearGradient id="g" x1="0" y1="0" x2="1" y2="1">
      <stop offset="0" stop-color="#5f84ff"/>
      <stop offset="1" stop-color="#1f38a8"/>
    </linearGradient>
    <linearGradient id="gloss" x1="0" y1="0" x2="0" y2="1">
      <stop offset="0" stop-color="#ffffff" stop-opacity=".35"/>
      <stop offset="1" stop-color="#ffffff" stop-opacity="0"/>
    </linearGradient>
  </defs>
  <rect width="64" height="64" rx="14" fill="url(#g)"/>
  <rect x="0" y="0" width="64" height="30" rx="14" fill="url(#gloss)"/>
  <path d="M40 22c-2.5-3-7.3-4.5-11.5-3.5-4.3 1-7 4-7 7.5 0 3.8 3 5.6 9.2 7 5.1 1.1 6.5 1.9 6.5 3.6 0 1.8-2 3-4.8 3-2.8 0-5-1.3-6.5-3.7l-4.3 3C23.9 42.8 27.8 45 33 45c5.8 0 10.3-3.1 10.3-7.8 0-4.5-3.4-6.2-9.8-7.5-5-1-6-1.6-6-3 0-1.6 1.9-2.7 4.4-2.7 2.2 0 4 .9 5.6 2.8z"
        fill="#ffffff"/>
</svg>
