<svg xmlns="http://www.w3.org/2000/svg" viewBox="0 0 512 512">
  <defs>
    <linearGradient id="g" x1="0" y1="0" x2="1" y2="1">
      <stop offset="0" stop-color="#5f84ff"/>
      <stop offset="1" stop-color="#1f38a8"/>
    </linearGradient>
  </defs>
  <rect width="512" height="512" fill="url(#g)"/>
  <path d="M324 168c-20-25-59-37-94-28-34 9-56 33-56 62 0 30 24 45 73 56 41 9 52 15 52 29 0 15-16 25-39 25-23 0-41-11-52-30l-35 24c14 23 45 38 87 38 47 0 83-25 83-63 0-37-28-50-79-61-40-9-48-13-48-25 0-13 15-22 36-22 18 0 32 7 45 22z"
        fill="#ffffff"/>
</svg>
